<svg width="14" height="14" viewBox="0 0 14 14" fill="none" xmlns="http://www.w3.org/2000/svg">
<path d="M7.00122 1.87571C8.67147 1.87571 8.86926 1.88303 9.52613 1.91234C10.1366 1.9392 10.4663 2.04176 10.686 2.12722C10.9766 2.23955 11.1866 2.37629 11.4039 2.59362C11.6237 2.81339 11.758 3.02095 11.8703 3.31154C11.9558 3.53131 12.0584 3.8634 12.0852 4.47143C12.1145 5.13074 12.1219 5.32853 12.1219 6.99634C12.1219 8.66659 12.1145 8.86438 12.0852 9.52125C12.0584 10.1317 11.9558 10.4614 11.8703 10.6811C11.758 10.9717 11.6213 11.1817 11.4039 11.3991C11.1842 11.6188 10.9766 11.7531 10.686 11.8655C10.4663 11.9509 10.1342 12.0535 9.52613 12.0803C8.86682 12.1096 8.66903 12.117 7.00122 12.117C5.33097 12.117 5.13318 12.1096 4.47631 12.0803C3.86584 12.0535 3.53619 11.9509 3.31642 11.8655C3.02584 11.7531 2.81583 11.6164 2.59851 11.3991C2.37874 11.1793 2.24443 10.9717 2.13211 10.6811C2.04664 10.4614 1.94408 10.1293 1.91722 9.52125C1.88792 8.86194 1.88059 8.66415 1.88059 6.99634C1.88059 5.32609 1.88792 5.1283 1.91722 4.47143C1.94408 3.86096 2.04664 3.53131 2.13211 3.31154C2.24443 3.02095 2.38118 2.81095 2.59851 2.59362C2.81828 2.37385 3.02584 2.23955 3.31642 2.12722C3.53619 2.04176 3.86829 1.9392 4.47631 1.91234C5.13318 1.88303 5.33097 1.87571 7.00122 1.87571ZM7.00122 0.75C5.30411 0.75 5.09167 0.757326 4.42503 0.786628C3.76084 0.815931 3.30421 0.923374 2.90862 1.07721C2.49595 1.23838 2.14676 1.45082 1.80001 1.80001C1.45082 2.14676 1.23838 2.49595 1.07721 2.90618C0.923374 3.30421 0.815931 3.7584 0.786628 4.42259C0.757326 5.09167 0.75 5.30411 0.75 7.00122C0.75 8.69833 0.757326 8.91078 0.786628 9.57741C0.815931 10.2416 0.923374 10.6982 1.07721 11.0938C1.23838 11.5065 1.45082 11.8557 1.80001 12.2024C2.14676 12.5492 2.49595 12.7641 2.90618 12.9228C3.30421 13.0766 3.7584 13.1841 4.42259 13.2134C5.08923 13.2427 5.30167 13.25 6.99878 13.25C8.69589 13.25 8.90833 13.2427 9.57497 13.2134C10.2392 13.1841 10.6958 13.0766 11.0914 12.9228C11.5016 12.7641 11.8508 12.5492 12.1975 12.2024C12.5443 11.8557 12.7592 11.5065 12.9179 11.0963C13.0717 10.6982 13.1792 10.244 13.2085 9.57985C13.2378 8.91322 13.2451 8.70077 13.2451 7.00366C13.2451 5.30656 13.2378 5.09411 13.2085 4.42748C13.1792 3.76328 13.0717 3.30665 12.9179 2.91107C12.7641 2.49595 12.5516 2.14676 12.2024 1.80001C11.8557 1.45326 11.5065 1.23838 11.0963 1.07965C10.6982 0.925816 10.244 0.818373 9.57985 0.78907C8.91077 0.757326 8.69833 0.75 7.00122 0.75Z" fill="#05061E"/>
<path d="M7.00112 3.79004C5.22831 3.79004 3.79004 5.22831 3.79004 7.00112C3.79004 8.77392 5.22831 10.2122 7.00112 10.2122C8.77392 10.2122 10.2122 8.77392 10.2122 7.00112C10.2122 5.22831 8.77392 3.79004 7.00112 3.79004ZM7.00112 9.08404C5.85099 9.08404 4.91819 8.15124 4.91819 7.00112C4.91819 5.85099 5.85099 4.91819 7.00112 4.91819C8.15124 4.91819 9.08404 5.85099 9.08404 7.00112C9.08404 8.15124 8.15124 9.08404 7.00112 9.08404Z" fill="#05061E"/>
<path d="M11.0889 3.66323C11.0889 4.07835 10.7519 4.41289 10.3393 4.41289C9.92414 4.41289 9.5896 4.07591 9.5896 3.66323C9.5896 3.24811 9.92658 2.91357 10.3393 2.91357C10.7519 2.91357 11.0889 3.25055 11.0889 3.66323Z" fill="#05061E"/>
</svg>
