<svg width="150" height="41" viewBox="0 0 150 41" fill="none" xmlns="http://www.w3.org/2000/svg">
<path d="M17.5234 0H129.673L150 18.0678L129.673 41H21.028L0 22.2373L17.5234 0Z" fill="#2844C3" fill-opacity="0.15"/>
<path d="M0.958633 22.1533L17.8634 0.700935H129.406L149.011 18.1267L129.358 40.2991H21.2953L0.958633 22.1533Z" stroke="#2844C3" stroke-opacity="0.2" stroke-width="1.40187"/>
<path fill-rule="evenodd" clip-rule="evenodd" d="M138.435 23.2797L116.706 4.16949H126.519L142.64 18.0678L138.435 23.2797ZM22.4302 4.16951H112.15L136.332 25.7119L127.22 36.8305H39.9536L14.019 13.8983L22.4302 4.16951ZM32.5938 35.7881L10.8648 16.678L6.65918 21.8898L22.7807 35.7881H32.5938Z" fill="#2844C3" fill-opacity="0.4"/>
<path d="M53.949 16.9914L52.8709 18.8266H52.0468L52.478 19.5022C52.0228 20.2736 51.5772 21.0355 51.1364 21.7782C50.9591 22.0801 50.7818 22.3819 50.6045 22.6838H52.181L53.2016 24.035H49.8091L48.7933 22.6838C49.2677 21.8788 49.7421 21.069 50.2212 20.2497C50.8585 19.162 51.5006 18.0791 52.1378 16.9914H53.949ZM61.237 16.9914L60.1253 18.8266H55.9519L56.4071 19.5022H57.9548L56.8048 21.3757H54.7109L55.2332 22.1998H58.0793L57.7823 22.6838L56.9773 24.0158L56.9677 24.035H53.6759L52.6649 22.6838L52.962 22.1998L56.1196 16.9914H61.237ZM66.9725 16.9914L65.856 18.8266H63.465L63.8915 19.5022C63.4363 20.2784 62.9859 21.0403 62.5451 21.7878C62.109 22.5305 61.673 23.2779 61.2274 24.035L60.2116 22.6838L62.4732 18.8266H60.4607L61.5772 16.9914H63.4986H66.8H66.9725ZM67.0491 21.2415L68.108 19.4016H69.924C69.5647 20.0197 69.2101 20.633 68.8603 21.2415H68.8459L68.4291 21.9603H67.6912L68.108 21.2415H67.0491ZM70.5565 16.9914H72.5306H75.8081L74.73 18.8266H70.4894L71.0596 19.5262H74.3227L71.673 24.035H67.9978L67.2887 22.1998H70.8536L71.3807 21.3709H69.2245L68.5201 20.2353L68.8268 19.7466L70.5565 16.9914ZM85.6786 16.9914L84.5622 18.8266H82.1712L82.5977 19.5022C82.1425 20.2784 81.6921 21.0403 81.2513 21.7878C80.8152 22.5305 80.3792 23.2779 79.9336 24.035L78.9178 22.6838L81.1794 18.8266H79.1669L80.2834 16.9914H82.2048H85.5061H85.6786ZM86.3063 16.9914H91.7591L90.6858 18.8266H89.8712L90.2881 19.5022C89.8473 20.2497 89.4065 21.002 88.9656 21.7494C88.5152 22.5113 88.0696 23.2731 87.6192 24.035L86.6082 22.6838L87.3749 21.3709H85.4534C85.3768 21.5003 85.3001 21.6344 85.2234 21.7638C84.7826 22.5113 84.337 23.2684 83.8866 24.035L82.8708 22.6838L82.8756 22.679L86.3063 16.9914ZM88.2325 19.9047L88.865 18.8266H86.9436C86.819 19.0422 86.6945 19.2578 86.5651 19.4687C86.4884 19.6028 86.407 19.737 86.3255 19.8759L86.3111 19.9047H88.2325ZM94.2843 16.9914L93.2062 18.8266H92.382L92.8133 19.5022C92.3581 20.2736 91.9124 21.0355 91.4716 21.7782C91.2943 22.0801 91.117 22.3819 90.9398 22.6838H92.5162L93.5368 24.035H90.1444L89.1286 22.6838C89.6029 21.8788 90.0773 21.069 90.5564 20.2497C91.1937 19.162 91.8358 18.0791 92.4731 16.9914H94.2843ZM101.716 16.9914C101.285 17.715 100.849 18.4385 100.408 19.1524C100.283 19.3585 100.159 19.5597 100.039 19.7609L97.4706 21.1457L99.6316 24.035H97.6958L95.7121 21.1505C95.5876 21.3661 95.4582 21.5817 95.3336 21.7926C94.8976 22.5353 94.4568 23.2827 94.0159 24.035L93.0001 22.6838C93.532 21.7734 94.0734 20.8534 94.6149 19.9286C95.1899 18.9512 95.7648 17.9689 96.3398 16.9914H98.151L97.0777 18.8266H96.2536L96.68 19.5022C96.5075 19.7993 96.335 20.0916 96.1625 20.3791L98.6398 19.0326L99.852 16.9914H101.716Z" fill="white"/>
</svg>
