<svg width="251" height="69" viewBox="0 0 251 69" fill="none" xmlns="http://www.w3.org/2000/svg">
<path fill-rule="evenodd" clip-rule="evenodd" d="M3.6828 37.1043L30.8452 2.33645H215.727L247.218 30.5692L215.564 66.5888H36.4433L3.6828 37.1043ZM29.7056 0H216.622L250.5 30.3735L250.5 30.3738L250.5 30.3744L216.622 68.9252H35.5467L0.5 37.3832L29.7056 0ZM187.416 7.00935H37.8832L23.8645 23.3645L67.0888 61.9159H212.533L227.72 43.2243L187.416 7.00935ZM195.009 7.00935L231.224 39.1355L238.234 30.3738L211.365 7.00935H195.009ZM18.6075 28.0374L54.8224 60.1636H38.4673L11.5981 36.7991L18.6075 28.0374Z" fill="white"/>
</svg>
