<svg width="14" height="14" viewBox="0 0 14 14" fill="none" xmlns="http://www.w3.org/2000/svg">
<path d="M8.19547 3.49984C8.76523 3.611 9.28886 3.88965 9.69934 4.30013C10.1098 4.71061 10.3885 5.23424 10.4996 5.804M8.19547 1.1665C9.37922 1.29801 10.4831 1.82811 11.3258 2.66976C12.1685 3.51141 12.7 4.61459 12.833 5.79817M5.96538 8.08663C5.26446 7.38571 4.711 6.59317 4.305 5.74755C4.27008 5.67482 4.25262 5.63845 4.2392 5.59243C4.19153 5.42889 4.22577 5.22807 4.32494 5.08957C4.35285 5.0506 4.38619 5.01726 4.45287 4.95058C4.65681 4.74664 4.75878 4.64467 4.82545 4.54213C5.07686 4.15545 5.07686 3.65694 4.82545 3.27026C4.75878 3.16772 4.65681 3.06575 4.45287 2.86181L4.3392 2.74814C4.02919 2.43813 3.87419 2.28313 3.70772 2.19893C3.37664 2.03147 2.98565 2.03147 2.65457 2.19893C2.4881 2.28313 2.3331 2.43813 2.02309 2.74814L1.93114 2.84009C1.62219 3.14904 1.46772 3.30351 1.34974 3.51353C1.21883 3.74658 1.1247 4.10853 1.12549 4.37583C1.12621 4.61671 1.17294 4.78134 1.26639 5.1106C1.76862 6.88008 2.71623 8.54979 4.10922 9.94278C5.50221 11.3358 7.17192 12.2834 8.9414 12.7856C9.27066 12.8791 9.43529 12.9258 9.67618 12.9265C9.94347 12.9273 10.3054 12.8332 10.5385 12.7023C10.7485 12.5843 10.903 12.4298 11.2119 12.1209L11.3039 12.0289C11.6139 11.7189 11.7689 11.5639 11.8531 11.3974C12.0205 11.0664 12.0205 10.6754 11.8531 10.3443C11.7689 10.1778 11.6139 10.0228 11.3039 9.7128L11.1902 9.59913C10.9863 9.39519 10.8843 9.29322 10.7817 9.22656C10.3951 8.97514 9.89656 8.97514 9.50987 9.22656C9.40733 9.29323 9.30537 9.39519 9.10143 9.59913C9.03475 9.66581 9.00141 9.69915 8.96243 9.72706C8.82393 9.82623 8.62311 9.86048 8.45957 9.8128C8.41355 9.79939 8.37719 9.78193 8.30445 9.74701C7.45884 9.34101 6.6663 8.78755 5.96538 8.08663Z" stroke="black" stroke-width="1.5" stroke-linecap="round" stroke-linejoin="round"/>
</svg>
