<svg width="92" height="80" viewBox="0 0 92 80" fill="none" xmlns="http://www.w3.org/2000/svg">
<path d="M22.2056 0H69.1215L92 45.2542L69.1215 80H28.0467L0 31.3898L22.2056 0Z" fill="#2844C3"/>
<path d="M39 32.9896C39 32.0185 39 31.5329 39.2025 31.2652C39.3789 31.032 39.6485 30.8877 39.9404 30.8703C40.2754 30.8503 40.6795 31.1196 41.4875 31.6584L52.0031 38.6687C52.6708 39.1139 53.0046 39.3364 53.1209 39.6169C53.2227 39.8622 53.2227 40.1378 53.1209 40.3831C53.0046 40.6636 52.6708 40.8862 52.0031 41.3313L41.4875 48.3417C40.6795 48.8804 40.2754 49.1497 39.9404 49.1297C39.6485 49.1123 39.3789 48.968 39.2025 48.7348C39 48.4671 39 47.9815 39 47.0104V32.9896Z" fill="white" stroke="white" stroke-width="2" stroke-linecap="round" stroke-linejoin="round"/>
</svg>
